<svg width="75" height="24" viewBox="0 0 75 24" fill="none" xmlns="http://www.w3.org/2000/svg">
<path d="M3.376 18.144C2.608 18.144 1.984 17.904 1.504 17.424C1.04 16.944 0.808 16.224 0.808 15.264C0.808 14.864 0.872 14.344 1 13.704L3.568 1.68L7.12 1.2L4.36 14.16C4.296 14.4 4.264 14.656 4.264 14.928C4.264 15.248 4.336 15.48 4.48 15.624C4.64 15.752 4.896 15.816 5.248 15.816C5.712 15.816 6.144 15.624 6.544 15.24C6.944 14.84 7.232 14.328 7.408 13.704H8.416C7.824 15.432 7.064 16.608 6.136 17.232C5.208 17.84 4.288 18.144 3.376 18.144ZM10.8304 18.144C9.64644 18.144 8.72644 17.84 8.07044 17.232C7.41444 16.608 7.08644 15.64 7.08644 14.328C7.08644 13.224 7.30244 12.008 7.73444 10.68C8.16644 9.352 8.87044 8.208 9.84644 7.248C10.8224 6.272 12.0624 5.784 13.5664 5.784C15.3264 5.784 16.2064 6.552 16.2064 8.088C16.2064 8.984 15.9504 9.808 15.4384 10.56C14.9264 11.312 14.2464 11.92 13.3984 12.384C12.5504 12.832 11.6464 13.088 10.6864 13.152C10.6544 13.632 10.6384 13.952 10.6384 14.112C10.6384 14.896 10.7744 15.432 11.0464 15.72C11.3184 15.992 11.7584 16.128 12.3664 16.128C13.2304 16.128 13.9664 15.928 14.5744 15.528C15.1984 15.128 15.8784 14.52 16.6144 13.704H17.4304C15.6544 16.664 13.4544 18.144 10.8304 18.144ZM10.8784 12C11.4704 11.968 12.0304 11.76 12.5584 11.376C13.1024 10.992 13.5344 10.504 13.8544 9.912C14.1904 9.32 14.3584 8.696 14.3584 8.04C14.3584 7.384 14.1584 7.056 13.7584 7.056C13.1824 7.056 12.6144 7.56 12.0544 8.568C11.5104 9.576 11.1184 10.72 10.8784 12ZM19.4894 18.144C18.5774 18.144 17.8174 17.832 17.2094 17.208C16.6014 16.584 16.2974 15.608 16.2974 14.28C16.2974 13.096 16.5294 11.856 16.9934 10.56C17.4734 9.248 18.1774 8.144 19.1054 7.248C20.0494 6.336 21.1694 5.88 22.4654 5.88C23.1214 5.88 23.6094 5.992 23.9294 6.216C24.2494 6.44 24.4094 6.736 24.4094 7.104V7.272L24.6734 6H28.1294L26.4014 14.16C26.3374 14.4 26.3054 14.656 26.3054 14.928C26.3054 15.616 26.6334 15.96 27.2894 15.96C27.7374 15.96 28.1214 15.752 28.4414 15.336C28.7774 14.92 29.0414 14.376 29.2334 13.704H30.2414C29.6494 15.432 28.9134 16.608 28.0334 17.232C27.1694 17.84 26.2974 18.144 25.4174 18.144C24.7454 18.144 24.2014 17.96 23.7854 17.592C23.3854 17.208 23.1454 16.656 23.0654 15.936C22.6014 16.592 22.0814 17.128 21.5054 17.544C20.9454 17.944 20.2734 18.144 19.4894 18.144ZM21.0494 15.816C21.4494 15.816 21.8414 15.632 22.2254 15.264C22.6254 14.88 22.8974 14.36 23.0414 13.704L24.1934 8.28C24.1934 8.072 24.1134 7.872 23.9534 7.68C23.7934 7.472 23.5454 7.368 23.2094 7.368C22.5694 7.368 21.9934 7.744 21.4814 8.496C20.9694 9.232 20.5694 10.128 20.2814 11.184C19.9934 12.224 19.8494 13.144 19.8494 13.944C19.8494 14.744 19.9614 15.256 20.1854 15.48C20.4254 15.704 20.7134 15.816 21.0494 15.816ZM30.8742 6H34.3302L34.0182 7.488C34.5622 7.008 35.0502 6.64 35.4822 6.384C35.9302 6.128 36.4102 6 36.9222 6C37.4342 6 37.8342 6.176 38.1222 6.528C38.4262 6.88 38.5782 7.304 38.5782 7.8C38.5782 8.264 38.4262 8.672 38.1222 9.024C37.8182 9.376 37.3942 9.552 36.8502 9.552C36.4982 9.552 36.2582 9.472 36.1302 9.312C36.0182 9.136 35.9302 8.888 35.8662 8.568C35.8182 8.36 35.7702 8.208 35.7222 8.112C35.6742 8.016 35.5862 7.968 35.4582 7.968C35.1222 7.968 34.8342 8.04 34.5942 8.184C34.3702 8.312 34.0742 8.544 33.7062 8.88L31.7862 18H28.3302L30.8742 6ZM46.9296 18.144C45.9536 18.144 45.2336 17.888 44.7696 17.376C44.3216 16.848 44.0976 16.2 44.0976 15.432C44.0976 15.096 44.1376 14.72 44.2176 14.304C44.2976 13.872 44.3776 13.456 44.4576 13.056C44.5536 12.656 44.6176 12.4 44.6496 12.288C44.7776 11.728 44.8976 11.176 45.0096 10.632C45.1216 10.088 45.1776 9.648 45.1776 9.312C45.1776 8.496 44.8896 8.088 44.3136 8.088C43.8976 8.088 43.5296 8.296 43.2096 8.712C42.8896 9.112 42.6336 9.64 42.4416 10.296L40.8096 18H37.3536L39.8976 6H43.3536L43.0896 7.248C43.8896 6.352 44.8256 5.904 45.8976 5.904C46.7136 5.904 47.3616 6.128 47.8416 6.576C48.3216 7.024 48.5616 7.704 48.5616 8.616C48.5616 9.08 48.5056 9.6 48.3936 10.176C48.2816 10.736 48.1216 11.424 47.9136 12.24C47.7856 12.736 47.6656 13.224 47.5536 13.704C47.4576 14.168 47.4096 14.536 47.4096 14.808C47.4096 15.128 47.4816 15.376 47.6256 15.552C47.7696 15.728 48.0176 15.816 48.3696 15.816C48.8496 15.816 49.2336 15.648 49.5216 15.312C49.8096 14.96 50.0976 14.424 50.3856 13.704H51.3936C50.8016 15.464 50.1136 16.648 49.3296 17.256C48.5616 17.848 47.7616 18.144 46.9296 18.144ZM48.2228 24C47.4708 24 46.8148 23.752 46.2548 23.256C45.6788 22.776 45.3908 22.16 45.3908 21.408C45.3908 20.72 45.5668 20.152 45.9188 19.704C46.2708 19.256 46.7268 18.896 47.2868 18.624C47.8468 18.368 48.5908 18.096 49.5188 17.808L52.4228 4.104C52.7428 2.568 53.3028 1.504 54.1028 0.912C54.9188 0.32 55.8148 0.0239997 56.7908 0.0239997C57.5428 0.0239997 58.1988 0.271999 58.7588 0.767999C59.3348 1.248 59.6228 1.864 59.6228 2.616C59.6228 2.984 59.5988 3.312 59.5508 3.6H58.4228C58.4548 3.248 58.4708 3.032 58.4708 2.952C58.4708 2.696 58.3828 2.496 58.2068 2.352C58.0308 2.208 57.8148 2.136 57.5588 2.136C57.2228 2.136 56.8948 2.288 56.5748 2.592C56.2548 2.88 56.0228 3.384 55.8788 4.104L55.4708 6H61.8788L60.1508 14.16C60.1028 14.4 60.0788 14.624 60.0788 14.832C60.0788 15.488 60.3188 15.816 60.7988 15.816C61.2468 15.816 61.6308 15.632 61.9508 15.264C62.2708 14.88 62.5268 14.36 62.7188 13.704L64.3508 6H67.8068L66.0788 14.16C66.0148 14.4 65.9828 14.656 65.9828 14.928C65.9828 15.248 66.0548 15.48 66.1988 15.624C66.3588 15.752 66.6148 15.816 66.9668 15.816C67.4148 15.816 67.7988 15.624 68.1188 15.24C68.4548 14.856 68.7188 14.344 68.9108 13.704H69.9188C69.3268 15.432 68.5908 16.608 67.7108 17.232C66.8468 17.84 65.9748 18.144 65.0948 18.144C64.4068 18.144 63.8548 17.952 63.4388 17.568C63.0388 17.184 62.7988 16.616 62.7188 15.864C62.1748 16.744 61.5988 17.344 60.9908 17.664C60.3988 17.984 59.7908 18.144 59.1668 18.144C58.3988 18.144 57.7748 17.904 57.2948 17.424C56.8308 16.944 56.5988 16.224 56.5988 15.264C56.5988 14.864 56.6628 14.344 56.7908 13.704L58.2068 6.96H55.2788L52.5188 19.92C52.1988 21.472 51.6468 22.536 50.8628 23.112C50.0788 23.704 49.1988 24 48.2228 24ZM47.6708 21.864C48.3108 21.864 48.7668 21.24 49.0388 19.992L49.3508 18.6C48.5028 18.888 47.8548 19.216 47.4068 19.584C46.9428 19.968 46.7108 20.464 46.7108 21.072C46.7108 21.264 46.8068 21.44 46.9988 21.6C47.1908 21.776 47.4148 21.864 47.6708 21.864ZM71.2499 18.144C70.4819 18.144 69.8579 17.904 69.3779 17.424C68.9139 16.928 68.6819 16.192 68.6819 15.216C68.6819 14.816 68.7459 14.296 68.8739 13.656L71.4419 1.632L74.9939 1.152L72.2339 14.112C72.1699 14.352 72.1379 14.584 72.1379 14.808C72.1379 15.448 72.4659 15.768 73.1219 15.768C73.4099 15.768 73.6659 15.72 73.8899 15.624C73.8259 16.424 73.5379 17.048 73.0259 17.496C72.5299 17.928 71.9379 18.144 71.2499 18.144Z" fill="black"/>
<path d="M3.376 18.144C2.608 18.144 1.984 17.904 1.504 17.424C1.04 16.944 0.808 16.224 0.808 15.264C0.808 14.864 0.872 14.344 1 13.704L3.568 1.68L7.12 1.2L4.36 14.16C4.296 14.4 4.264 14.656 4.264 14.928C4.264 15.248 4.336 15.48 4.48 15.624C4.64 15.752 4.896 15.816 5.248 15.816C5.712 15.816 6.144 15.624 6.544 15.24C6.944 14.84 7.232 14.328 7.408 13.704H8.416C7.824 15.432 7.064 16.608 6.136 17.232C5.208 17.84 4.288 18.144 3.376 18.144ZM10.8304 18.144C9.64644 18.144 8.72644 17.84 8.07044 17.232C7.41444 16.608 7.08644 15.64 7.08644 14.328C7.08644 13.224 7.30244 12.008 7.73444 10.68C8.16644 9.352 8.87044 8.208 9.84644 7.248C10.8224 6.272 12.0624 5.784 13.5664 5.784C15.3264 5.784 16.2064 6.552 16.2064 8.088C16.2064 8.984 15.9504 9.808 15.4384 10.56C14.9264 11.312 14.2464 11.92 13.3984 12.384C12.5504 12.832 11.6464 13.088 10.6864 13.152C10.6544 13.632 10.6384 13.952 10.6384 14.112C10.6384 14.896 10.7744 15.432 11.0464 15.72C11.3184 15.992 11.7584 16.128 12.3664 16.128C13.2304 16.128 13.9664 15.928 14.5744 15.528C15.1984 15.128 15.8784 14.52 16.6144 13.704H17.4304C15.6544 16.664 13.4544 18.144 10.8304 18.144ZM10.8784 12C11.4704 11.968 12.0304 11.76 12.5584 11.376C13.1024 10.992 13.5344 10.504 13.8544 9.912C14.1904 9.32 14.3584 8.696 14.3584 8.04C14.3584 7.384 14.1584 7.056 13.7584 7.056C13.1824 7.056 12.6144 7.56 12.0544 8.568C11.5104 9.576 11.1184 10.72 10.8784 12ZM19.4894 18.144C18.5774 18.144 17.8174 17.832 17.2094 17.208C16.6014 16.584 16.2974 15.608 16.2974 14.28C16.2974 13.096 16.5294 11.856 16.9934 10.56C17.4734 9.248 18.1774 8.144 19.1054 7.248C20.0494 6.336 21.1694 5.88 22.4654 5.88C23.1214 5.88 23.6094 5.992 23.9294 6.216C24.2494 6.44 24.4094 6.736 24.4094 7.104V7.272L24.6734 6H28.1294L26.4014 14.16C26.3374 14.4 26.3054 14.656 26.3054 14.928C26.3054 15.616 26.6334 15.96 27.2894 15.96C27.7374 15.96 28.1214 15.752 28.4414 15.336C28.7774 14.92 29.0414 14.376 29.2334 13.704H30.2414C29.6494 15.432 28.9134 16.608 28.0334 17.232C27.1694 17.84 26.2974 18.144 25.4174 18.144C24.7454 18.144 24.2014 17.96 23.7854 17.592C23.3854 17.208 23.1454 16.656 23.0654 15.936C22.6014 16.592 22.0814 17.128 21.5054 17.544C20.9454 17.944 20.2734 18.144 19.4894 18.144ZM21.0494 15.816C21.4494 15.816 21.8414 15.632 22.2254 15.264C22.6254 14.88 22.8974 14.36 23.0414 13.704L24.1934 8.28C24.1934 8.072 24.1134 7.872 23.9534 7.68C23.7934 7.472 23.5454 7.368 23.2094 7.368C22.5694 7.368 21.9934 7.744 21.4814 8.496C20.9694 9.232 20.5694 10.128 20.2814 11.184C19.9934 12.224 19.8494 13.144 19.8494 13.944C19.8494 14.744 19.9614 15.256 20.1854 15.48C20.4254 15.704 20.7134 15.816 21.0494 15.816ZM30.8742 6H34.3302L34.0182 7.488C34.5622 7.008 35.0502 6.64 35.4822 6.384C35.9302 6.128 36.4102 6 36.9222 6C37.4342 6 37.8342 6.176 38.1222 6.528C38.4262 6.88 38.5782 7.304 38.5782 7.8C38.5782 8.264 38.4262 8.672 38.1222 9.024C37.8182 9.376 37.3942 9.552 36.8502 9.552C36.4982 9.552 36.2582 9.472 36.1302 9.312C36.0182 9.136 35.9302 8.888 35.8662 8.568C35.8182 8.36 35.7702 8.208 35.7222 8.112C35.6742 8.016 35.5862 7.968 35.4582 7.968C35.1222 7.968 34.8342 8.04 34.5942 8.184C34.3702 8.312 34.0742 8.544 33.7062 8.88L31.7862 18H28.3302L30.8742 6ZM46.9296 18.144C45.9536 18.144 45.2336 17.888 44.7696 17.376C44.3216 16.848 44.0976 16.2 44.0976 15.432C44.0976 15.096 44.1376 14.72 44.2176 14.304C44.2976 13.872 44.3776 13.456 44.4576 13.056C44.5536 12.656 44.6176 12.4 44.6496 12.288C44.7776 11.728 44.8976 11.176 45.0096 10.632C45.1216 10.088 45.1776 9.648 45.1776 9.312C45.1776 8.496 44.8896 8.088 44.3136 8.088C43.8976 8.088 43.5296 8.296 43.2096 8.712C42.8896 9.112 42.6336 9.64 42.4416 10.296L40.8096 18H37.3536L39.8976 6H43.3536L43.0896 7.248C43.8896 6.352 44.8256 5.904 45.8976 5.904C46.7136 5.904 47.3616 6.128 47.8416 6.576C48.3216 7.024 48.5616 7.704 48.5616 8.616C48.5616 9.08 48.5056 9.6 48.3936 10.176C48.2816 10.736 48.1216 11.424 47.9136 12.24C47.7856 12.736 47.6656 13.224 47.5536 13.704C47.4576 14.168 47.4096 14.536 47.4096 14.808C47.4096 15.128 47.4816 15.376 47.6256 15.552C47.7696 15.728 48.0176 15.816 48.3696 15.816C48.8496 15.816 49.2336 15.648 49.5216 15.312C49.8096 14.96 50.0976 14.424 50.3856 13.704H51.3936C50.8016 15.464 50.1136 16.648 49.3296 17.256C48.5616 17.848 47.7616 18.144 46.9296 18.144ZM48.2228 24C47.4708 24 46.8148 23.752 46.2548 23.256C45.6788 22.776 45.3908 22.16 45.3908 21.408C45.3908 20.72 45.5668 20.152 45.9188 19.704C46.2708 19.256 46.7268 18.896 47.2868 18.624C47.8468 18.368 48.5908 18.096 49.5188 17.808L52.4228 4.104C52.7428 2.568 53.3028 1.504 54.1028 0.912C54.9188 0.32 55.8148 0.0239997 56.7908 0.0239997C57.5428 0.0239997 58.1988 0.271999 58.7588 0.767999C59.3348 1.248 59.6228 1.864 59.6228 2.616C59.6228 2.984 59.5988 3.312 59.5508 3.6H58.4228C58.4548 3.248 58.4708 3.032 58.4708 2.952C58.4708 2.696 58.3828 2.496 58.2068 2.352C58.0308 2.208 57.8148 2.136 57.5588 2.136C57.2228 2.136 56.8948 2.288 56.5748 2.592C56.2548 2.88 56.0228 3.384 55.8788 4.104L55.4708 6H61.8788L60.1508 14.16C60.1028 14.4 60.0788 14.624 60.0788 14.832C60.0788 15.488 60.3188 15.816 60.7988 15.816C61.2468 15.816 61.6308 15.632 61.9508 15.264C62.2708 14.88 62.5268 14.36 62.7188 13.704L64.3508 6H67.8068L66.0788 14.16C66.0148 14.4 65.9828 14.656 65.9828 14.928C65.9828 15.248 66.0548 15.48 66.1988 15.624C66.3588 15.752 66.6148 15.816 66.9668 15.816C67.4148 15.816 67.7988 15.624 68.1188 15.24C68.4548 14.856 68.7188 14.344 68.9108 13.704H69.9188C69.3268 15.432 68.5908 16.608 67.7108 17.232C66.8468 17.84 65.9748 18.144 65.0948 18.144C64.4068 18.144 63.8548 17.952 63.4388 17.568C63.0388 17.184 62.7988 16.616 62.7188 15.864C62.1748 16.744 61.5988 17.344 60.9908 17.664C60.3988 17.984 59.7908 18.144 59.1668 18.144C58.3988 18.144 57.7748 17.904 57.2948 17.424C56.8308 16.944 56.5988 16.224 56.5988 15.264C56.5988 14.864 56.6628 14.344 56.7908 13.704L58.2068 6.96H55.2788L52.5188 19.92C52.1988 21.472 51.6468 22.536 50.8628 23.112C50.0788 23.704 49.1988 24 48.2228 24ZM47.6708 21.864C48.3108 21.864 48.7668 21.24 49.0388 19.992L49.3508 18.6C48.5028 18.888 47.8548 19.216 47.4068 19.584C46.9428 19.968 46.7108 20.464 46.7108 21.072C46.7108 21.264 46.8068 21.44 46.9988 21.6C47.1908 21.776 47.4148 21.864 47.6708 21.864ZM71.2499 18.144C70.4819 18.144 69.8579 17.904 69.3779 17.424C68.9139 16.928 68.6819 16.192 68.6819 15.216C68.6819 14.816 68.7459 14.296 68.8739 13.656L71.4419 1.632L74.9939 1.152L72.2339 14.112C72.1699 14.352 72.1379 14.584 72.1379 14.808C72.1379 15.448 72.4659 15.768 73.1219 15.768C73.4099 15.768 73.6659 15.72 73.8899 15.624C73.8259 16.424 73.5379 17.048 73.0259 17.496C72.5299 17.928 71.9379 18.144 71.2499 18.144Z" fill="black"/>
</svg>
