<svg width="137" height="50" viewBox="0 0 137 50" fill="none" xmlns="http://www.w3.org/2000/svg">
<path d="M65.376 35.144C64.608 35.144 63.984 34.904 63.504 34.424C63.04 33.944 62.808 33.224 62.808 32.264C62.808 31.864 62.872 31.344 63 30.704L65.568 18.68L69.12 18.2L66.36 31.16C66.296 31.4 66.264 31.656 66.264 31.928C66.264 32.248 66.336 32.48 66.48 32.624C66.64 32.752 66.896 32.816 67.248 32.816C67.712 32.816 68.144 32.624 68.544 32.24C68.944 31.84 69.232 31.328 69.408 30.704H70.416C69.824 32.432 69.064 33.608 68.136 34.232C67.208 34.84 66.288 35.144 65.376 35.144ZM72.8304 35.144C71.6464 35.144 70.7264 34.84 70.0704 34.232C69.4144 33.608 69.0864 32.64 69.0864 31.328C69.0864 30.224 69.3024 29.008 69.7344 27.68C70.1664 26.352 70.8704 25.208 71.8464 24.248C72.8224 23.272 74.0624 22.784 75.5664 22.784C77.3264 22.784 78.2064 23.552 78.2064 25.088C78.2064 25.984 77.9504 26.808 77.4384 27.56C76.9264 28.312 76.2464 28.92 75.3984 29.384C74.5504 29.832 73.6464 30.088 72.6864 30.152C72.6544 30.632 72.6384 30.952 72.6384 31.112C72.6384 31.896 72.7744 32.432 73.0464 32.72C73.3184 32.992 73.7584 33.128 74.3664 33.128C75.2304 33.128 75.9664 32.928 76.5744 32.528C77.1984 32.128 77.8784 31.52 78.6144 30.704H79.4304C77.6544 33.664 75.4544 35.144 72.8304 35.144ZM72.8784 29C73.4704 28.968 74.0304 28.76 74.5584 28.376C75.1024 27.992 75.5344 27.504 75.8544 26.912C76.1904 26.32 76.3584 25.696 76.3584 25.04C76.3584 24.384 76.1584 24.056 75.7584 24.056C75.1824 24.056 74.6144 24.56 74.0544 25.568C73.5104 26.576 73.1184 27.72 72.8784 29ZM81.4894 35.144C80.5774 35.144 79.8174 34.832 79.2094 34.208C78.6014 33.584 78.2974 32.608 78.2974 31.28C78.2974 30.096 78.5294 28.856 78.9934 27.56C79.4734 26.248 80.1774 25.144 81.1054 24.248C82.0494 23.336 83.1694 22.88 84.4654 22.88C85.1214 22.88 85.6094 22.992 85.9294 23.216C86.2494 23.44 86.4094 23.736 86.4094 24.104V24.272L86.6734 23H90.1294L88.4014 31.16C88.3374 31.4 88.3054 31.656 88.3054 31.928C88.3054 32.616 88.6334 32.96 89.2894 32.96C89.7374 32.96 90.1214 32.752 90.4414 32.336C90.7774 31.92 91.0414 31.376 91.2334 30.704H92.2414C91.6494 32.432 90.9134 33.608 90.0334 34.232C89.1694 34.84 88.2974 35.144 87.4174 35.144C86.7454 35.144 86.2014 34.96 85.7854 34.592C85.3854 34.208 85.1454 33.656 85.0654 32.936C84.6014 33.592 84.0814 34.128 83.5054 34.544C82.9454 34.944 82.2734 35.144 81.4894 35.144ZM83.0494 32.816C83.4494 32.816 83.8414 32.632 84.2254 32.264C84.6254 31.88 84.8974 31.36 85.0414 30.704L86.1934 25.28C86.1934 25.072 86.1134 24.872 85.9534 24.68C85.7934 24.472 85.5454 24.368 85.2094 24.368C84.5694 24.368 83.9934 24.744 83.4814 25.496C82.9694 26.232 82.5694 27.128 82.2814 28.184C81.9934 29.224 81.8494 30.144 81.8494 30.944C81.8494 31.744 81.9614 32.256 82.1854 32.48C82.4254 32.704 82.7134 32.816 83.0494 32.816ZM92.8742 23H96.3302L96.0182 24.488C96.5622 24.008 97.0502 23.64 97.4822 23.384C97.9302 23.128 98.4102 23 98.9222 23C99.4342 23 99.8342 23.176 100.122 23.528C100.426 23.88 100.578 24.304 100.578 24.8C100.578 25.264 100.426 25.672 100.122 26.024C99.8182 26.376 99.3942 26.552 98.8502 26.552C98.4982 26.552 98.2582 26.472 98.1302 26.312C98.0182 26.136 97.9302 25.888 97.8662 25.568C97.8182 25.36 97.7702 25.208 97.7222 25.112C97.6742 25.016 97.5862 24.968 97.4582 24.968C97.1222 24.968 96.8342 25.04 96.5942 25.184C96.3702 25.312 96.0742 25.544 95.7062 25.88L93.7862 35H90.3302L92.8742 23ZM108.93 35.144C107.954 35.144 107.234 34.888 106.77 34.376C106.322 33.848 106.098 33.2 106.098 32.432C106.098 32.096 106.138 31.72 106.218 31.304C106.298 30.872 106.378 30.456 106.458 30.056C106.554 29.656 106.618 29.4 106.65 29.288C106.778 28.728 106.898 28.176 107.01 27.632C107.122 27.088 107.178 26.648 107.178 26.312C107.178 25.496 106.89 25.088 106.314 25.088C105.898 25.088 105.53 25.296 105.21 25.712C104.89 26.112 104.634 26.64 104.442 27.296L102.81 35H99.3536L101.898 23H105.354L105.09 24.248C105.89 23.352 106.826 22.904 107.898 22.904C108.714 22.904 109.362 23.128 109.842 23.576C110.322 24.024 110.562 24.704 110.562 25.616C110.562 26.08 110.506 26.6 110.394 27.176C110.282 27.736 110.122 28.424 109.914 29.24C109.786 29.736 109.666 30.224 109.554 30.704C109.458 31.168 109.41 31.536 109.41 31.808C109.41 32.128 109.482 32.376 109.626 32.552C109.77 32.728 110.018 32.816 110.37 32.816C110.85 32.816 111.234 32.648 111.522 32.312C111.81 31.96 112.098 31.424 112.386 30.704H113.394C112.802 32.464 112.114 33.648 111.33 34.256C110.562 34.848 109.762 35.144 108.93 35.144ZM110.223 41C109.471 41 108.815 40.752 108.255 40.256C107.679 39.776 107.391 39.16 107.391 38.408C107.391 37.72 107.567 37.152 107.919 36.704C108.271 36.256 108.727 35.896 109.287 35.624C109.847 35.368 110.591 35.096 111.519 34.808L114.423 21.104C114.743 19.568 115.303 18.504 116.103 17.912C116.919 17.32 117.815 17.024 118.791 17.024C119.543 17.024 120.199 17.272 120.759 17.768C121.335 18.248 121.623 18.864 121.623 19.616C121.623 19.984 121.599 20.312 121.551 20.6H120.423C120.455 20.248 120.471 20.032 120.471 19.952C120.471 19.696 120.383 19.496 120.207 19.352C120.031 19.208 119.815 19.136 119.559 19.136C119.223 19.136 118.895 19.288 118.575 19.592C118.255 19.88 118.023 20.384 117.879 21.104L117.471 23H123.879L122.151 31.16C122.103 31.4 122.079 31.624 122.079 31.832C122.079 32.488 122.319 32.816 122.799 32.816C123.247 32.816 123.631 32.632 123.951 32.264C124.271 31.88 124.527 31.36 124.719 30.704L126.351 23H129.807L128.079 31.16C128.015 31.4 127.983 31.656 127.983 31.928C127.983 32.248 128.055 32.48 128.199 32.624C128.359 32.752 128.615 32.816 128.967 32.816C129.415 32.816 129.799 32.624 130.119 32.24C130.455 31.856 130.719 31.344 130.911 30.704H131.919C131.327 32.432 130.591 33.608 129.711 34.232C128.847 34.84 127.975 35.144 127.095 35.144C126.407 35.144 125.855 34.952 125.439 34.568C125.039 34.184 124.799 33.616 124.719 32.864C124.175 33.744 123.599 34.344 122.991 34.664C122.399 34.984 121.791 35.144 121.167 35.144C120.399 35.144 119.775 34.904 119.295 34.424C118.831 33.944 118.599 33.224 118.599 32.264C118.599 31.864 118.663 31.344 118.791 30.704L120.207 23.96H117.279L114.519 36.92C114.199 38.472 113.647 39.536 112.863 40.112C112.079 40.704 111.199 41 110.223 41ZM109.671 38.864C110.311 38.864 110.767 38.24 111.039 36.992L111.351 35.6C110.503 35.888 109.855 36.216 109.407 36.584C108.943 36.968 108.711 37.464 108.711 38.072C108.711 38.264 108.807 38.44 108.999 38.6C109.191 38.776 109.415 38.864 109.671 38.864ZM133.25 35.144C132.482 35.144 131.858 34.904 131.378 34.424C130.914 33.928 130.682 33.192 130.682 32.216C130.682 31.816 130.746 31.296 130.874 30.656L133.442 18.632L136.994 18.152L134.234 31.112C134.17 31.352 134.138 31.584 134.138 31.808C134.138 32.448 134.466 32.768 135.122 32.768C135.41 32.768 135.666 32.72 135.89 32.624C135.826 33.424 135.538 34.048 135.026 34.496C134.53 34.928 133.938 35.144 133.25 35.144Z" fill="black"/>
<path d="M65.376 35.144C64.608 35.144 63.984 34.904 63.504 34.424C63.04 33.944 62.808 33.224 62.808 32.264C62.808 31.864 62.872 31.344 63 30.704L65.568 18.68L69.12 18.2L66.36 31.16C66.296 31.4 66.264 31.656 66.264 31.928C66.264 32.248 66.336 32.48 66.48 32.624C66.64 32.752 66.896 32.816 67.248 32.816C67.712 32.816 68.144 32.624 68.544 32.24C68.944 31.84 69.232 31.328 69.408 30.704H70.416C69.824 32.432 69.064 33.608 68.136 34.232C67.208 34.84 66.288 35.144 65.376 35.144ZM72.8304 35.144C71.6464 35.144 70.7264 34.84 70.0704 34.232C69.4144 33.608 69.0864 32.64 69.0864 31.328C69.0864 30.224 69.3024 29.008 69.7344 27.68C70.1664 26.352 70.8704 25.208 71.8464 24.248C72.8224 23.272 74.0624 22.784 75.5664 22.784C77.3264 22.784 78.2064 23.552 78.2064 25.088C78.2064 25.984 77.9504 26.808 77.4384 27.56C76.9264 28.312 76.2464 28.92 75.3984 29.384C74.5504 29.832 73.6464 30.088 72.6864 30.152C72.6544 30.632 72.6384 30.952 72.6384 31.112C72.6384 31.896 72.7744 32.432 73.0464 32.72C73.3184 32.992 73.7584 33.128 74.3664 33.128C75.2304 33.128 75.9664 32.928 76.5744 32.528C77.1984 32.128 77.8784 31.52 78.6144 30.704H79.4304C77.6544 33.664 75.4544 35.144 72.8304 35.144ZM72.8784 29C73.4704 28.968 74.0304 28.76 74.5584 28.376C75.1024 27.992 75.5344 27.504 75.8544 26.912C76.1904 26.32 76.3584 25.696 76.3584 25.04C76.3584 24.384 76.1584 24.056 75.7584 24.056C75.1824 24.056 74.6144 24.56 74.0544 25.568C73.5104 26.576 73.1184 27.72 72.8784 29ZM81.4894 35.144C80.5774 35.144 79.8174 34.832 79.2094 34.208C78.6014 33.584 78.2974 32.608 78.2974 31.28C78.2974 30.096 78.5294 28.856 78.9934 27.56C79.4734 26.248 80.1774 25.144 81.1054 24.248C82.0494 23.336 83.1694 22.88 84.4654 22.88C85.1214 22.88 85.6094 22.992 85.9294 23.216C86.2494 23.44 86.4094 23.736 86.4094 24.104V24.272L86.6734 23H90.1294L88.4014 31.16C88.3374 31.4 88.3054 31.656 88.3054 31.928C88.3054 32.616 88.6334 32.96 89.2894 32.96C89.7374 32.96 90.1214 32.752 90.4414 32.336C90.7774 31.92 91.0414 31.376 91.2334 30.704H92.2414C91.6494 32.432 90.9134 33.608 90.0334 34.232C89.1694 34.84 88.2974 35.144 87.4174 35.144C86.7454 35.144 86.2014 34.96 85.7854 34.592C85.3854 34.208 85.1454 33.656 85.0654 32.936C84.6014 33.592 84.0814 34.128 83.5054 34.544C82.9454 34.944 82.2734 35.144 81.4894 35.144ZM83.0494 32.816C83.4494 32.816 83.8414 32.632 84.2254 32.264C84.6254 31.88 84.8974 31.36 85.0414 30.704L86.1934 25.28C86.1934 25.072 86.1134 24.872 85.9534 24.68C85.7934 24.472 85.5454 24.368 85.2094 24.368C84.5694 24.368 83.9934 24.744 83.4814 25.496C82.9694 26.232 82.5694 27.128 82.2814 28.184C81.9934 29.224 81.8494 30.144 81.8494 30.944C81.8494 31.744 81.9614 32.256 82.1854 32.48C82.4254 32.704 82.7134 32.816 83.0494 32.816ZM92.8742 23H96.3302L96.0182 24.488C96.5622 24.008 97.0502 23.64 97.4822 23.384C97.9302 23.128 98.4102 23 98.9222 23C99.4342 23 99.8342 23.176 100.122 23.528C100.426 23.88 100.578 24.304 100.578 24.8C100.578 25.264 100.426 25.672 100.122 26.024C99.8182 26.376 99.3942 26.552 98.8502 26.552C98.4982 26.552 98.2582 26.472 98.1302 26.312C98.0182 26.136 97.9302 25.888 97.8662 25.568C97.8182 25.36 97.7702 25.208 97.7222 25.112C97.6742 25.016 97.5862 24.968 97.4582 24.968C97.1222 24.968 96.8342 25.04 96.5942 25.184C96.3702 25.312 96.0742 25.544 95.7062 25.88L93.7862 35H90.3302L92.8742 23ZM108.93 35.144C107.954 35.144 107.234 34.888 106.77 34.376C106.322 33.848 106.098 33.2 106.098 32.432C106.098 32.096 106.138 31.72 106.218 31.304C106.298 30.872 106.378 30.456 106.458 30.056C106.554 29.656 106.618 29.4 106.65 29.288C106.778 28.728 106.898 28.176 107.01 27.632C107.122 27.088 107.178 26.648 107.178 26.312C107.178 25.496 106.89 25.088 106.314 25.088C105.898 25.088 105.53 25.296 105.21 25.712C104.89 26.112 104.634 26.64 104.442 27.296L102.81 35H99.3536L101.898 23H105.354L105.09 24.248C105.89 23.352 106.826 22.904 107.898 22.904C108.714 22.904 109.362 23.128 109.842 23.576C110.322 24.024 110.562 24.704 110.562 25.616C110.562 26.08 110.506 26.6 110.394 27.176C110.282 27.736 110.122 28.424 109.914 29.24C109.786 29.736 109.666 30.224 109.554 30.704C109.458 31.168 109.41 31.536 109.41 31.808C109.41 32.128 109.482 32.376 109.626 32.552C109.77 32.728 110.018 32.816 110.37 32.816C110.85 32.816 111.234 32.648 111.522 32.312C111.81 31.96 112.098 31.424 112.386 30.704H113.394C112.802 32.464 112.114 33.648 111.33 34.256C110.562 34.848 109.762 35.144 108.93 35.144ZM110.223 41C109.471 41 108.815 40.752 108.255 40.256C107.679 39.776 107.391 39.16 107.391 38.408C107.391 37.72 107.567 37.152 107.919 36.704C108.271 36.256 108.727 35.896 109.287 35.624C109.847 35.368 110.591 35.096 111.519 34.808L114.423 21.104C114.743 19.568 115.303 18.504 116.103 17.912C116.919 17.32 117.815 17.024 118.791 17.024C119.543 17.024 120.199 17.272 120.759 17.768C121.335 18.248 121.623 18.864 121.623 19.616C121.623 19.984 121.599 20.312 121.551 20.6H120.423C120.455 20.248 120.471 20.032 120.471 19.952C120.471 19.696 120.383 19.496 120.207 19.352C120.031 19.208 119.815 19.136 119.559 19.136C119.223 19.136 118.895 19.288 118.575 19.592C118.255 19.88 118.023 20.384 117.879 21.104L117.471 23H123.879L122.151 31.16C122.103 31.4 122.079 31.624 122.079 31.832C122.079 32.488 122.319 32.816 122.799 32.816C123.247 32.816 123.631 32.632 123.951 32.264C124.271 31.88 124.527 31.36 124.719 30.704L126.351 23H129.807L128.079 31.16C128.015 31.4 127.983 31.656 127.983 31.928C127.983 32.248 128.055 32.48 128.199 32.624C128.359 32.752 128.615 32.816 128.967 32.816C129.415 32.816 129.799 32.624 130.119 32.24C130.455 31.856 130.719 31.344 130.911 30.704H131.919C131.327 32.432 130.591 33.608 129.711 34.232C128.847 34.84 127.975 35.144 127.095 35.144C126.407 35.144 125.855 34.952 125.439 34.568C125.039 34.184 124.799 33.616 124.719 32.864C124.175 33.744 123.599 34.344 122.991 34.664C122.399 34.984 121.791 35.144 121.167 35.144C120.399 35.144 119.775 34.904 119.295 34.424C118.831 33.944 118.599 33.224 118.599 32.264C118.599 31.864 118.663 31.344 118.791 30.704L120.207 23.96H117.279L114.519 36.92C114.199 38.472 113.647 39.536 112.863 40.112C112.079 40.704 111.199 41 110.223 41ZM109.671 38.864C110.311 38.864 110.767 38.24 111.039 36.992L111.351 35.6C110.503 35.888 109.855 36.216 109.407 36.584C108.943 36.968 108.711 37.464 108.711 38.072C108.711 38.264 108.807 38.44 108.999 38.6C109.191 38.776 109.415 38.864 109.671 38.864ZM133.25 35.144C132.482 35.144 131.858 34.904 131.378 34.424C130.914 33.928 130.682 33.192 130.682 32.216C130.682 31.816 130.746 31.296 130.874 30.656L133.442 18.632L136.994 18.152L134.234 31.112C134.17 31.352 134.138 31.584 134.138 31.808C134.138 32.448 134.466 32.768 135.122 32.768C135.41 32.768 135.666 32.72 135.89 32.624C135.826 33.424 135.538 34.048 135.026 34.496C134.53 34.928 133.938 35.144 133.25 35.144Z" fill="black"/>
<path d="M17.4281 16.987C18.3626 12.3417 22.4435 9 27.1818 9V9L23.5779 30.0773C22.6966 35.2314 18.2289 39 13 39V39L17.4281 16.987Z" fill="white"/>
<path d="M17.4281 16.987C18.3626 12.3417 22.4435 9 27.1818 9V9L23.5779 30.0773C22.6966 35.2314 18.2289 39 13 39V39L17.4281 16.987Z" fill="url(#paint0_linear)"/>
<path d="M22.2728 39C22.2728 33.5775 26.6686 29.1818 32.091 29.1818H39.1819V29.1818C39.1819 34.6042 34.7862 39 29.3637 39H22.2728V39Z" fill="white"/>
<path d="M22.2728 39C22.2728 33.5775 26.6686 29.1818 32.091 29.1818H39.1819V29.1818C39.1819 34.6042 34.7862 39 29.3637 39H22.2728V39Z" fill="url(#paint1_linear)"/>
<defs>
<linearGradient id="paint0_linear" x1="20.0909" y1="9" x2="20.0909" y2="39" gradientUnits="userSpaceOnUse">
<stop offset="0.442708" stop-color="#3F51B5"/>
<stop offset="1" stop-color="#1A237E"/>
</linearGradient>
<linearGradient id="paint1_linear" x1="30.7274" y1="29.1818" x2="30.7274" y2="39" gradientUnits="userSpaceOnUse">
<stop offset="0.442708" stop-color="#3F51B5"/>
<stop offset="1" stop-color="#1A237E"/>
</linearGradient>
</defs>
</svg>
