<svg class="pass-SocialButton-icon pass-SocialButton-icon--google" width="16" height="16" viewBox="0 0 16 16"><defs><path d="M15.32 6.488H7.93v3.064h4.254c-.397 1.947-2.055 3.064-4.254 3.064A4.677 4.677 0 0 1 3.244 7.93 4.677 4.677 0 0 1 7.93 3.244c1.118 0 2.127.397 2.92 1.046l2.307-2.307C11.751.757 9.949 0 7.93 0A7.907 7.907 0 0 0 0 7.93a7.907 7.907 0 0 0 7.93 7.93c3.965 0 7.57-2.883 7.57-7.93 0-.468-.072-.973-.18-1.442z" id="id-10a"></path><path d="M15.32 6.488H7.93v3.064h4.254c-.397 1.947-2.055 3.064-4.254 3.064A4.677 4.677 0 0 1 3.244 7.93 4.677 4.677 0 0 1 7.93 3.244c1.118 0 2.127.397 2.92 1.046l2.307-2.307C11.751.757 9.949 0 7.93 0A7.907 7.907 0 0 0 0 7.93a7.907 7.907 0 0 0 7.93 7.93c3.965 0 7.57-2.883 7.57-7.93 0-.468-.072-.973-.18-1.442z" id="id-12c"></path><path d="M15.32 6.488H7.93v3.064h4.254c-.397 1.947-2.055 3.064-4.254 3.064A4.677 4.677 0 0 1 3.244 7.93 4.677 4.677 0 0 1 7.93 3.244c1.118 0 2.127.397 2.92 1.046l2.307-2.307C11.751.757 9.949 0 7.93 0A7.907 7.907 0 0 0 0 7.93a7.907 7.907 0 0 0 7.93 7.93c3.965 0 7.57-2.883 7.57-7.93 0-.468-.072-.973-.18-1.442z" id="id-14e"></path><path d="M15.32 6.488H7.93v3.064h4.254c-.397 1.947-2.055 3.064-4.254 3.064A4.677 4.677 0 0 1 3.244 7.93 4.677 4.677 0 0 1 7.93 3.244c1.118 0 2.127.397 2.92 1.046l2.307-2.307C11.751.757 9.949 0 7.93 0A7.907 7.907 0 0 0 0 7.93a7.907 7.907 0 0 0 7.93 7.93c3.965 0 7.57-2.883 7.57-7.93 0-.468-.072-.973-.18-1.442z" id="id-16g"></path></defs><g fill="none" fill-rule="evenodd"><g transform="translate(.08 .07)"><mask id="id-11b" fill="#fff"><use xlink:href="#id-10a"></use></mask><path fill="#FBBC05" fill-rule="nonzero" mask="url(#id-11b)" d="M-.72 12.616V3.244L5.406 7.93z"></path></g><g transform="translate(.08 .07)"><mask id="id-13d" fill="#fff"><use xlink:href="#id-12c"></use></mask><path fill="#EA4335" fill-rule="nonzero" mask="url(#id-13d)" d="M-.72 3.244L5.406 7.93 7.93 5.731l8.651-1.405V-.721H-.72z"></path></g><g transform="translate(.08 .07)"><mask id="id-15f" fill="#fff"><use xlink:href="#id-14e"></use></mask><path fill="#34A853" fill-rule="nonzero" mask="url(#id-15f)" d="M-.72 12.616l10.813-8.29 2.848.36 3.64-5.407v17.302H-.72z"></path></g><g transform="translate(.08 .07)"><mask id="id-17h" fill="#fff"><use xlink:href="#id-16g"></use></mask><path fill="#4285F4" fill-rule="nonzero" mask="url(#id-17h)" d="M16.581 16.581L5.407 7.931 3.965 6.848l12.616-3.605z"></path></g></g></svg>