<svg width="22" height="19" viewBox="0 0 22 19" fill="none" xmlns="http://www.w3.org/2000/svg">
<rect x="1" y="1" width="20" height="17" rx="5" stroke="black" stroke-width="2"/>
<path d="M8.36 13H6.92V10.72H4.92V13H3.48V7.4H4.92V9.6H6.92V7.4H8.36V13ZM11.9638 13.08C11.0731 13.08 10.0864 13.0267 9.00375 12.92V11.84C10.1824 11.92 11.0624 11.96 11.6438 11.96C11.7664 11.96 11.8624 11.9253 11.9318 11.856C12.0064 11.7813 12.0438 11.6827 12.0438 11.56V11.16C12.0438 10.84 11.8838 10.68 11.5638 10.68H9.24375V7.4H13.0838V8.52H10.6838V9.56H11.9638C12.4864 9.56 12.8704 9.68 13.1158 9.92C13.3611 10.1547 13.4838 10.5147 13.4838 11V11.56C13.4838 12.0827 13.3611 12.4667 13.1158 12.712C12.8704 12.9573 12.4864 13.08 11.9638 13.08ZM14.1206 7.4H17.4806C18.0406 7.4 18.446 7.528 18.6966 7.784C18.9526 8.03467 19.0806 8.44 19.0806 9V9.8C19.0806 10.36 18.9526 10.768 18.6966 11.024C18.446 11.2747 18.0406 11.4 17.4806 11.4H15.5606V13H14.1206V7.4ZM17.6406 9C17.6406 8.68 17.4806 8.52 17.1606 8.52H15.5606V10.28H17.1606C17.4806 10.28 17.6406 10.12 17.6406 9.8V9Z" fill="black"/>
</svg>
